<svg width="391" height="148" viewBox="0 0 391 148" fill="none" xmlns="http://www.w3.org/2000/svg">
<rect width="391" height="148" fill="white"/>
<path d="M191.796 62.084C194.558 62.084 196.796 64.3225 196.796 67.084V88.6186C196.796 91.38 194.558 93.6186 191.796 93.6186H190.882C188.12 93.6186 185.882 91.38 185.882 88.6186V67.084C185.882 64.3225 188.12 62.084 190.882 62.084H191.796ZM185.158 54.2049C185.158 53.3607 185.319 52.5768 185.641 51.8532C185.962 51.0894 186.404 50.4261 186.967 49.8633C187.53 49.3005 188.173 48.8583 188.897 48.5367C189.661 48.2151 190.465 48.0543 191.309 48.0543C192.153 48.0543 192.937 48.2151 193.661 48.5367C194.424 48.8583 195.088 49.3005 195.65 49.8633C196.213 50.4261 196.655 51.0894 196.977 51.8532C197.299 52.5768 197.459 53.3607 197.459 54.2049C197.459 55.0491 197.299 55.8531 196.977 56.6169C196.655 57.3405 196.213 57.9837 195.65 58.5465C195.088 59.1093 194.424 59.5515 193.661 59.8731C192.937 60.1947 192.153 60.3555 191.309 60.3555C190.465 60.3555 189.661 60.1947 188.897 59.8731C188.173 59.5515 187.53 59.1093 186.967 58.5465C186.404 57.9837 185.962 57.3405 185.641 56.6169C185.319 55.8531 185.158 55.0491 185.158 54.2049Z" fill="#159C47"/>
<path d="M156.747 77.9088C156.747 78.9138 156.927 79.8585 157.289 80.7429C157.651 81.5871 158.133 82.3308 158.736 82.974C159.38 83.6172 160.123 84.1197 160.968 84.4815C161.852 84.8433 162.797 85.0242 163.802 85.0242C164.766 85.0242 165.671 84.8433 166.515 84.4815C167.4 84.1197 168.143 83.6172 168.746 82.974C169.389 82.3308 169.892 81.5871 170.254 80.7429C170.656 79.8987 170.857 78.9942 170.857 78.0294C170.857 77.0646 170.656 76.1601 170.254 75.3159C169.892 74.4315 169.389 73.6677 168.746 73.0245C168.143 72.3813 167.4 71.8788 166.515 71.517C165.671 71.1552 164.766 70.9743 163.802 70.9743C162.837 70.9743 161.912 71.1552 161.028 71.517C160.184 71.8788 159.44 72.3813 158.797 73.0245C158.194 73.6677 157.691 74.4114 157.289 75.2556C156.927 76.0596 156.747 76.944 156.747 77.9088ZM170.495 50.4172C170.495 49.3126 171.39 48.4172 172.495 48.4172H179.47C180.574 48.4172 181.47 49.3126 181.47 50.4172V91.4662C181.47 92.5707 180.574 93.4662 179.47 93.4662H171.384C170.893 93.4662 170.495 93.0681 170.495 92.5772C170.495 91.7353 169.368 91.3144 168.72 91.8508C166.639 93.5709 164.075 94.431 161.028 94.431C158.777 94.431 156.706 94.0089 154.817 93.1647C152.928 92.3205 151.279 91.1547 149.872 89.6673C148.465 88.1799 147.36 86.4312 146.556 84.4212C145.792 82.4112 145.41 80.2404 145.41 77.9088C145.41 75.6978 145.772 73.6074 146.496 71.6376C147.259 69.6276 148.325 67.8789 149.691 66.3915C151.058 64.9041 152.686 63.7383 154.576 62.8941C156.505 62.0097 158.616 61.5675 160.907 61.5675C162.93 61.5675 164.77 61.9373 166.428 62.6768C168.082 63.4148 170.495 62.3726 170.495 60.561V50.4172Z" fill="black"/>
<path d="M117.481 77.9088C117.481 78.9138 117.662 79.8585 118.024 80.7429C118.385 81.5871 118.868 82.3308 119.471 82.974C120.114 83.6172 120.858 84.1197 121.702 84.4815C122.586 84.8433 123.531 85.0242 124.536 85.0242C125.501 85.0242 126.405 84.8433 127.25 84.4815C128.134 84.1197 128.878 83.6172 129.481 82.974C130.124 82.3308 130.626 81.5871 130.988 80.7429C131.39 79.8987 131.591 78.9942 131.591 78.0294C131.591 77.0646 131.39 76.1601 130.988 75.3159C130.626 74.4315 130.124 73.6677 129.481 73.0245C128.878 72.3813 128.134 71.8788 127.25 71.517C126.405 71.1552 125.501 70.9743 124.536 70.9743C123.531 70.9743 122.586 71.1552 121.702 71.517C120.858 71.8788 120.114 72.3813 119.471 73.0245C118.868 73.6677 118.385 74.4114 118.024 75.2556C117.662 76.0596 117.481 76.944 117.481 77.9088ZM131.229 63.4052C131.229 62.9231 131.62 62.5323 132.102 62.5323H140.204C141.309 62.5323 142.204 63.4277 142.204 64.5323V91.4662C142.204 92.5708 141.309 93.4662 140.204 93.4662H132.118C131.627 93.4662 131.229 93.0682 131.229 92.5772C131.229 91.7353 130.103 91.3144 129.454 91.8508C127.373 93.5709 124.809 94.431 121.762 94.431C119.511 94.431 117.441 94.029 115.551 93.225C113.662 92.3808 112.014 91.215 110.607 89.7276C109.2 88.2402 108.094 86.4915 107.29 84.4815C106.526 82.4715 106.145 80.2806 106.145 77.9088C106.145 75.6978 106.526 73.6074 107.29 71.6376C108.054 69.6276 109.119 67.8789 110.486 66.3915C111.853 64.9041 113.481 63.7383 115.37 62.8941C117.26 62.0097 119.35 61.5675 121.642 61.5675C124.715 61.5675 127.367 62.4215 129.599 64.1296C130.227 64.6101 131.229 64.1958 131.229 63.4052Z" fill="black"/>
<path d="M83.0487 66.8638C83.0487 67.9684 83.9441 68.8638 85.0487 68.8638H86.9682C91.3098 68.8638 93.4806 66.9744 93.4806 63.1956C93.4806 59.4168 91.3098 57.5274 86.9682 57.5274H85.0487C83.9441 57.5274 83.0487 58.4228 83.0487 59.5274V66.8638ZM83.0487 91.4662C83.0487 92.5708 82.1533 93.4662 81.0487 93.4662H73.2299C72.1253 93.4662 71.2299 92.5708 71.2299 91.4662V50C71.2299 48.8954 72.1253 48 73.2299 48H90.0435C95.1489 48 99.0483 49.3266 101.742 51.9798C104.475 54.633 105.842 58.3716 105.842 63.1956C105.842 68.0196 104.475 71.7582 101.742 74.4114C99.0483 77.0646 95.1489 78.3912 90.0435 78.3912H85.0487C83.9441 78.3912 83.0487 79.2866 83.0487 80.3912V91.4662Z" fill="black"/>
<path d="M367.908 79.1273C367.892 79.9939 367.184 80.6878 366.318 80.6878H349.483C348.319 80.6878 347.375 81.6883 347.68 82.8112C348.057 84.1993 348.705 85.366 349.624 86.3115C350.978 87.6855 352.715 88.3725 354.835 88.3725C356.484 88.3725 357.848 87.9799 358.928 87.1948C359.704 86.62 360.559 85.6874 361.492 84.3972C362.113 83.5399 363.27 83.2395 364.195 83.7551L366.359 84.9624C367.338 85.5088 367.685 86.7602 367.045 87.6813C366.515 88.4437 365.969 89.1354 365.405 89.7564C364.443 90.7967 363.413 91.6604 362.314 92.3474C361.215 93.0147 360.027 93.5055 358.751 93.8195C357.475 94.1336 356.091 94.2906 354.6 94.2906C350.32 94.2906 346.885 92.9166 344.294 90.1686C341.703 87.4009 340.408 83.7303 340.408 79.1567C340.408 74.6225 341.664 70.9519 344.177 68.1449C346.709 65.3772 350.065 63.9934 354.246 63.9934C358.466 63.9934 361.803 65.338 364.257 68.0271C366.691 70.6967 367.908 74.3967 367.908 79.1273ZM358.488 75.2702C359.798 75.2702 360.781 74.0002 360.099 72.8822C358.914 70.941 357.012 69.9704 354.393 69.9704C353.589 69.9704 352.833 70.098 352.126 70.3532C351.42 70.5887 350.772 70.942 350.183 71.4131C349.614 71.8646 349.123 72.4142 348.711 73.062C348.056 74.0904 348.96 75.2702 350.179 75.2702H358.488Z" fill="black"/>
<path d="M324.033 66.7884C324.033 65.6838 324.928 64.7884 326.033 64.7884H329.925C330.33 64.7884 330.658 65.1163 330.658 65.5208C330.658 66.1818 331.476 66.5151 331.973 66.0803C332.668 65.4735 333.309 65.0233 333.896 64.7295C334.858 64.2388 335.997 63.9934 337.312 63.9934C338.549 63.9934 339.826 64.2789 341.141 64.8499C342.101 65.2663 342.427 66.4244 341.959 67.3602L340.805 69.6667C340.255 70.7681 338.856 71.0615 337.686 70.6785C337.143 70.5009 336.606 70.4121 336.075 70.4121C332.463 70.4121 330.658 73.1405 330.658 78.5973V91.4662C330.658 92.5708 329.762 93.4662 328.658 93.4662H326.033C324.928 93.4662 324.033 92.5708 324.033 91.4662V66.7884Z" fill="black"/>
<path d="M313.429 65.7451C313.429 65.2167 313.857 64.7884 314.385 64.7884H318.083C319.187 64.7884 320.083 65.6838 320.083 66.7884V91.4662C320.083 92.5708 319.187 93.4662 318.083 93.4662H314.338C313.836 93.4662 313.429 93.0593 313.429 92.5574C313.429 91.7623 312.461 91.3325 311.82 91.8024C309.556 93.4612 307.157 94.2906 304.625 94.2906C300.66 94.2906 297.382 92.8577 294.791 89.9919C292.22 87.0672 290.934 83.4162 290.934 79.039C290.934 74.7402 292.22 71.158 294.791 68.2921C297.362 65.4263 300.582 63.9934 304.448 63.9934C307.067 63.9934 309.473 64.8392 311.668 66.5309C312.35 67.0563 313.429 66.6058 313.429 65.7451ZM297.706 79.039C297.706 81.787 298.442 84.0247 299.914 85.7521C301.426 87.499 303.33 88.3725 305.626 88.3725C308.08 88.3725 310.062 87.5285 311.574 85.8404C313.085 84.0934 313.841 81.8753 313.841 79.1862C313.841 76.497 313.085 74.279 311.574 72.532C310.062 70.8243 308.099 69.9704 305.685 69.9704C303.408 69.9704 301.504 70.8341 299.973 72.5614C298.462 74.3084 297.706 76.4676 297.706 79.039Z" fill="black"/>
<path d="M268.466 64.7883C269.571 64.7883 270.466 65.6838 270.466 66.7883V81.2472C270.466 85.9974 272.341 88.3725 276.09 88.3725C279.839 88.3725 281.714 85.9974 281.714 81.2472V66.7883C281.714 65.6838 282.609 64.7883 283.714 64.7883H286.338C287.443 64.7883 288.338 65.6838 288.338 66.7883V81.3944C288.338 83.691 288.054 85.6735 287.485 87.3419C286.935 88.8337 285.983 90.1783 284.629 91.3757C282.391 93.3189 279.545 94.2906 276.09 94.2906C272.655 94.2906 269.819 93.3189 267.581 91.3757C266.207 90.1783 265.235 88.8337 264.666 87.3419C264.116 86.0072 263.842 84.0247 263.842 81.3944V66.7883C263.842 65.6838 264.737 64.7883 265.842 64.7883H268.466Z" fill="black"/>
<path d="M255.531 109.071C254.426 109.071 253.531 108.176 253.531 107.071V95.1619C253.531 93.3694 251.214 92.3698 249.598 93.1465C248.012 93.9093 246.319 94.2906 244.521 94.2906C240.654 94.2906 237.445 92.8675 234.893 90.0213C232.322 87.1555 231.036 83.5732 231.036 79.2745C231.036 74.9169 232.322 71.2757 234.893 68.351C237.484 65.4459 240.733 63.9934 244.639 63.9934C247.271 63.9934 249.681 64.8154 251.869 66.4595C252.52 66.9488 253.531 66.5169 253.531 65.7025C253.531 65.1976 253.94 64.7884 254.445 64.7884H258.185C259.29 64.7884 260.185 65.6838 260.185 66.7884V107.071C260.185 108.176 259.29 109.071 258.185 109.071H255.531ZM237.808 78.9801C237.808 81.7478 238.554 83.9953 240.046 85.7226C241.538 87.4892 243.432 88.3725 245.728 88.3725C248.162 88.3725 250.135 87.5285 251.646 85.8404C253.178 84.1327 253.943 81.9146 253.943 79.1862C253.943 76.497 253.187 74.279 251.676 72.532C250.164 70.8243 248.202 69.9704 245.787 69.9704C243.51 69.9704 241.606 70.8341 240.075 72.5614C238.564 74.3084 237.808 76.448 237.808 78.9801Z" fill="black"/>
<path d="M225.903 53.0364C226.957 54.3222 226.449 56.1924 225.012 57.0281L224.635 57.247C223.207 58.0776 221.441 57.5356 220.322 56.3199C219.898 55.8598 219.484 55.5137 219.079 55.2817C218.097 54.6652 216.831 54.357 215.28 54.357C213.376 54.357 211.796 54.8868 210.54 55.9463C209.284 56.9865 208.656 58.2964 208.656 59.8761C208.656 62.0529 210.305 63.8058 213.602 65.135L218.137 66.9555C221.827 68.4195 224.526 70.211 226.233 72.33C227.941 74.4298 228.795 77.0111 228.795 80.074C228.795 84.1772 227.401 87.5676 224.614 90.2452C221.807 92.9422 218.323 94.2906 214.162 94.2906C210.216 94.2906 206.958 93.1444 204.386 90.8521C202.443 89.0928 201.061 86.7834 200.239 83.9238C199.801 82.402 200.851 80.9115 202.399 80.5768L203.374 80.3659C205.102 79.9923 206.715 81.2067 207.215 82.9022C207.495 83.8513 207.838 84.5845 208.244 85.1018C209.657 87.0282 211.718 87.9914 214.427 87.9914C216.566 87.9914 218.343 87.2883 219.756 85.882C221.169 84.4758 221.876 82.6939 221.876 80.5364C221.876 79.6695 221.748 78.8797 221.493 78.1669C221.257 77.4349 220.875 76.7703 220.345 76.1731C219.834 75.5567 219.167 74.9884 218.343 74.4683C217.518 73.9289 216.537 73.4184 215.398 72.9368L211.011 71.1453C204.789 68.564 201.678 64.7883 201.678 59.8183C201.678 56.4664 202.983 53.6635 205.594 51.4097C208.204 49.1366 211.453 48 215.339 48C219.63 48 223.152 49.6788 225.903 53.0364Z" fill="black"/>
<g clip-path="url(#clip0_3_81)">
<rect x="20" y="48" width="45.4662" height="45.4662" rx="22.7331" fill="#159C47"/>
<g opacity="0.18">
<path d="M23.0324 51.585C24.8352 51.585 26.2966 50.0264 26.2966 48.1039C26.2966 50.0266 27.7581 51.585 29.5607 51.585C31.3635 51.585 32.825 50.0264 32.825 48.1039C32.825 50.0266 34.2864 51.585 36.0891 51.585C37.8918 51.585 39.3532 50.0264 39.3532 48.1039C39.3532 50.0266 40.8146 51.585 42.6173 51.585C44.42 51.585 45.8815 50.0264 45.8815 48.1039C45.8815 50.0266 47.3429 51.585 49.1456 51.585C50.9484 51.585 52.4097 50.0264 52.4097 48.1039C52.4097 50.0266 53.8711 51.585 55.6739 51.585C57.4767 51.585 58.938 50.0264 58.938 48.1039C58.938 50.0266 60.3994 51.585 62.2021 51.585C64.0049 51.585 65.4662 50.0264 65.4662 48.1039L65.4169 48H20.0028C20.0028 48 19.7931 51.585 23.0324 51.585Z" fill="#272525"/>
</g>
<g opacity="0.18">
<path d="M23.0324 89.8811C24.8352 89.8811 26.2966 91.4398 26.2966 93.3623C26.2966 91.4396 27.7581 89.8811 29.5607 89.8811C31.3635 89.8811 32.825 91.4398 32.825 93.3623C32.825 91.4396 34.2864 89.8811 36.0891 89.8811C37.8918 89.8811 39.3532 91.4398 39.3532 93.3623C39.3532 91.4396 40.8146 89.8811 42.6173 89.8811C44.42 89.8811 45.8815 91.4398 45.8815 93.3623C45.8815 91.4396 47.3429 89.8811 49.1456 89.8811C50.9484 89.8811 52.4097 91.4398 52.4097 93.3623C52.4097 91.4396 53.8711 89.8811 55.6739 89.8811C57.4767 89.8811 58.938 91.4398 58.938 93.3623C58.938 91.4396 60.3994 89.8811 62.2021 89.8811C64.0049 89.8811 65.4662 91.4398 65.4662 93.3623L65.4169 93.4662H20.0028C20.0028 93.4662 19.7931 89.8811 23.0324 89.8811Z" fill="#272525"/>
</g>
<path d="M39.8004 66.6566L39.4295 65.3801C39.2374 64.719 39.7333 64.0585 40.4217 64.0585H58.0506C58.7389 64.0585 59.2348 64.7187 59.043 65.3798L57.2676 71.498C57.1394 71.9396 56.735 72.2434 56.2752 72.2434H45.5975C45.1562 72.2434 44.8381 72.6666 44.9607 73.0905C45.0428 73.374 45.3024 73.5691 45.5975 73.5691H55.2913C55.9799 73.5691 56.4759 74.23 56.2834 74.8912L55.9455 76.0524C55.8171 76.4936 55.4128 76.797 54.9533 76.797H43.5207C43.0612 76.797 42.6569 76.4935 42.5286 76.0523L40.8323 70.2222C40.6399 69.5611 41.1359 68.9002 41.8245 68.9002H54.1666C54.499 68.9002 54.7916 68.6814 54.8854 68.3626C55.0268 67.8826 54.667 67.4016 54.1666 67.4016H40.7927C40.333 67.4016 39.9286 67.098 39.8004 66.6566Z" fill="white"/>
<path fill-rule="evenodd" clip-rule="evenodd" d="M34.3606 62.8438C34.2346 62.399 33.8286 62.0921 33.3664 62.0921H27.7868C27.3265 62.0921 26.9218 61.7877 26.794 61.3455L26.5564 60.5229C26.3655 59.8621 26.8613 59.2028 27.5491 59.2028H35.7208C36.1805 59.2028 36.5849 59.5064 36.7131 59.9478L40.8566 74.2114L41.2241 75.4752C41.4164 76.1363 40.9204 76.797 40.2319 76.797H32.3187C30.9323 76.797 29.8735 76.4368 29.1421 75.7163C28.3998 74.9958 28.0286 73.9806 28.0286 72.6706C28.0286 71.3607 28.3998 70.3455 29.1421 69.625C29.8735 68.9045 30.9323 68.5443 32.3187 68.5443H34.6086C35.2942 68.5443 35.7897 67.889 35.6028 67.2294L35.2429 65.9586L34.8109 64.4534C34.8105 64.4521 34.8115 64.4507 34.813 64.4507C34.8144 64.4507 34.8154 64.4494 34.815 64.448L34.3606 62.8438ZM33.1538 71.1315H36.0189C36.4791 71.1315 36.8838 71.4358 37.0116 71.8779L37.304 72.8896C37.495 73.5504 36.9992 74.2098 36.3113 74.2098H33.1538C31.9748 74.2098 30.7293 74.2098 30.7293 72.6706C30.7293 71.1051 31.7806 71.117 32.8658 71.1293C32.9617 71.1304 33.058 71.1315 33.1538 71.1315Z" fill="white"/>
<circle cx="40.2687" cy="81.025" r="2.5" fill="white"/>
<circle cx="48.4015" cy="81.025" r="2.5" fill="white"/>
</g>
<defs>
<clipPath id="clip0_3_81">
<rect x="20" y="48" width="45.4662" height="45.4662" rx="22.7331" fill="white"/>
</clipPath>
</defs>
</svg>
