<svg width="225" height="40" viewBox="0 0 225 40" fill="none" xmlns="http://www.w3.org/2000/svg">
<path d="M118.128 14.0511C119.651 14.0511 120.886 15.2861 120.886 16.8097V28.6909C120.886 30.2144 119.651 31.4495 118.128 31.4495H117.623C116.1 31.4495 114.865 30.2144 114.865 28.6909V16.8097C114.865 15.2861 116.1 14.0511 117.623 14.0511H118.128ZM114.466 9.70398C114.466 9.23822 114.554 8.80572 114.732 8.40649C114.909 7.98509 115.153 7.61913 115.464 7.30862C115.774 6.9981 116.129 6.75413 116.528 6.5767C116.95 6.39926 117.393 6.31055 117.859 6.31055C118.325 6.31055 118.757 6.39926 119.157 6.5767C119.578 6.75413 119.944 6.9981 120.254 7.30862C120.565 7.61913 120.809 7.98509 120.986 8.40649C121.164 8.80572 121.252 9.23822 121.252 9.70398C121.252 10.1697 121.164 10.6133 120.986 11.0347C120.809 11.434 120.565 11.7888 120.254 12.0993C119.944 12.4099 119.578 12.6538 119.157 12.8313C118.757 13.0087 118.325 13.0974 117.859 13.0974C117.393 13.0974 116.95 13.0087 116.528 12.8313C116.129 12.6538 115.774 12.4099 115.464 12.0993C115.153 11.7888 114.909 11.434 114.732 11.0347C114.554 10.6133 114.466 10.1697 114.466 9.70398Z" fill="#159C47"/>
<path d="M98.7902 22.782C98.7902 23.3365 98.89 23.8577 99.0896 24.3456C99.2892 24.8114 99.5554 25.2217 99.8881 25.5766C100.243 25.9314 100.653 26.2087 101.119 26.4083C101.607 26.6079 102.128 26.7077 102.683 26.7077C103.215 26.7077 103.714 26.6079 104.18 26.4083C104.668 26.2087 105.078 25.9314 105.411 25.5766C105.766 25.2217 106.043 24.8114 106.242 24.3456C106.464 23.8798 106.575 23.3808 106.575 22.8485C106.575 22.3162 106.464 21.8172 106.242 21.3514C106.043 20.8635 105.766 20.4421 105.411 20.0872C105.078 19.7323 104.668 19.4551 104.18 19.2555C103.714 19.0558 103.215 18.956 102.683 18.956C102.15 18.956 101.64 19.0558 101.152 19.2555C100.687 19.4551 100.276 19.7323 99.9214 20.0872C99.5887 20.4421 99.3114 20.8524 99.0896 21.3181C98.89 21.7617 98.7902 22.2497 98.7902 22.782ZM106.376 7.61419C106.376 7.00477 106.87 6.51074 107.479 6.51074H111.327C111.936 6.51074 112.43 7.00477 112.43 7.61419V30.2619C112.43 30.8713 111.936 31.3654 111.327 31.3654H106.866C106.595 31.3654 106.376 31.1458 106.376 30.8749C106.376 30.4104 105.754 30.1782 105.396 30.4741C104.248 31.4232 102.833 31.8977 101.152 31.8977C99.9103 31.8977 98.768 31.6648 97.7256 31.199C96.6832 30.7333 95.7738 30.0901 94.9976 29.2694C94.2213 28.4488 93.6113 27.484 93.1678 26.375C92.7463 25.2661 92.5356 24.0684 92.5356 22.782C92.5356 21.5621 92.7353 20.4088 93.1345 19.322C93.5559 18.213 94.1436 17.2482 94.8977 16.4276C95.6518 15.607 96.5501 14.9638 97.5925 14.498C98.6571 14.0101 99.8215 13.7661 101.086 13.7661C102.202 13.7661 103.217 13.9701 104.132 14.3781C105.044 14.7853 106.376 14.2103 106.376 13.2108V7.61419Z" fill="#F8FAFC"/>
<path d="M77.1264 22.782C77.1264 23.3365 77.2262 23.8577 77.4258 24.3456C77.6254 24.8114 77.8916 25.2217 78.2243 25.5766C78.5791 25.9315 78.9895 26.2087 79.4552 26.4083C79.9432 26.6079 80.4644 26.7077 81.0189 26.7077C81.5512 26.7077 82.0502 26.6079 82.516 26.4083C83.0039 26.2087 83.4142 25.9315 83.7469 25.5766C84.1018 25.2217 84.379 24.8114 84.5786 24.3456C84.8004 23.8799 84.9113 23.3808 84.9113 22.8485C84.9113 22.3162 84.8004 21.8172 84.5786 21.3514C84.379 20.8635 84.1018 20.4421 83.7469 20.0872C83.4142 19.7323 83.0039 19.4551 82.516 19.2555C82.0502 19.0559 81.5512 18.9561 81.0189 18.9561C80.4644 18.9561 79.9432 19.0559 79.4552 19.2555C78.9895 19.4551 78.5791 19.7323 78.2243 20.0872C77.8916 20.4421 77.6254 20.8524 77.4258 21.3182C77.2262 21.7618 77.1264 22.2497 77.1264 22.782ZM84.7117 14.78C84.7117 14.514 84.9273 14.2984 85.1933 14.2984H89.6632C90.2726 14.2984 90.7667 14.7924 90.7667 15.4019V30.2619C90.7667 30.8714 90.2726 31.3654 89.6632 31.3654H85.2022C84.9313 31.3654 84.7117 31.1458 84.7117 30.8749C84.7117 30.4104 84.0902 30.1782 83.7322 30.4742C82.5841 31.4232 81.1696 31.8977 79.4885 31.8977C78.2464 31.8977 77.1042 31.6759 76.0618 31.2323C75.0194 30.7666 74.11 30.1234 73.3337 29.3027C72.5575 28.4821 71.9475 27.5173 71.5039 26.4083C71.0825 25.2994 70.8718 24.0906 70.8718 22.782C70.8718 21.5621 71.0825 20.4088 71.5039 19.322C71.9253 18.2131 72.5131 17.2483 73.2672 16.4276C74.0213 15.607 74.9196 14.9638 75.962 14.498C77.0044 14.0101 78.1577 13.7661 79.422 13.7661C81.1175 13.7661 82.581 14.2373 83.8125 15.1797C84.1589 15.4448 84.7117 15.2162 84.7117 14.78Z" fill="#F8FAFC"/>
<path d="M58.1294 16.6884C58.1294 17.2978 58.6234 17.7918 59.2328 17.7918H60.2918C62.6872 17.7918 63.8849 16.7494 63.8849 14.6645C63.8849 12.5797 62.6872 11.5373 60.2918 11.5373H59.2328C58.6234 11.5373 58.1294 12.0313 58.1294 12.6407V16.6884ZM58.1294 30.2621C58.1294 30.8715 57.6353 31.3656 57.0259 31.3656H52.7121C52.1027 31.3656 51.6086 30.8715 51.6086 30.2621V7.38421C51.6086 6.77479 52.1027 6.28076 52.7121 6.28076H61.9886C64.8053 6.28076 66.9567 7.01268 68.4427 8.47651C69.9509 9.94035 70.705 12.003 70.705 14.6645C70.705 17.3261 69.9509 19.3887 68.4427 20.8526C66.9567 22.3164 64.8053 23.0483 61.9886 23.0483H59.2328C58.6234 23.0483 58.1294 23.5424 58.1294 24.1518V30.2621Z" fill="#F8FAFC"/>
<path d="M215.293 23.4542C215.284 23.9323 214.894 24.3152 214.416 24.3152H205.127C204.485 24.3152 203.965 24.8672 204.133 25.4867C204.341 26.2526 204.698 26.8963 205.205 27.4179C205.952 28.176 206.911 28.555 208.08 28.555C208.99 28.555 209.743 28.3384 210.338 27.9052C210.767 27.5881 211.238 27.0736 211.753 26.3618C212.096 25.8888 212.734 25.723 213.244 26.0075L214.438 26.6736C214.979 26.9751 215.17 27.6655 214.817 28.1737C214.525 28.5943 214.223 28.9759 213.912 29.3185C213.382 29.8925 212.813 30.369 212.207 30.7481C211.6 31.1163 210.945 31.387 210.241 31.5603C209.537 31.7336 208.774 31.8202 207.951 31.8202C205.59 31.8202 203.694 31.0621 202.265 29.546C200.835 28.019 200.121 25.9938 200.121 23.4705C200.121 20.9688 200.814 18.9436 202.2 17.395C203.597 15.868 205.449 15.1045 207.756 15.1045C210.084 15.1045 211.925 15.8463 213.279 17.33C214.622 18.8028 215.293 20.8443 215.293 23.4542ZM210.096 21.3262C210.818 21.3262 211.361 20.6255 210.984 20.0087C210.331 18.9377 209.282 18.4021 207.837 18.4021C207.393 18.4021 206.976 18.4725 206.586 18.6133C206.196 18.7433 205.839 18.9382 205.514 19.1981C205.2 19.4472 204.929 19.7505 204.702 20.1078C204.341 20.6752 204.839 21.3262 205.512 21.3262H210.096Z" fill="#F8FAFC"/>
<path d="M191.086 16.6465C191.086 16.0371 191.58 15.5431 192.19 15.5431H194.337C194.56 15.5431 194.741 15.724 194.741 15.9472C194.741 16.3119 195.193 16.4958 195.467 16.2559C195.85 15.9211 196.204 15.6727 196.528 15.5106C197.059 15.2399 197.687 15.1045 198.413 15.1045C199.095 15.1045 199.799 15.262 200.525 15.577C201.055 15.8068 201.234 16.4457 200.976 16.962L200.34 18.2346C200.036 18.8422 199.264 19.0041 198.619 18.7928C198.319 18.6948 198.023 18.6458 197.73 18.6458C195.738 18.6458 194.741 20.1512 194.741 23.1618V30.2619C194.741 30.8713 194.247 31.3653 193.638 31.3653H192.19C191.58 31.3653 191.086 30.8713 191.086 30.2619V16.6465Z" fill="#F8FAFC"/>
<path d="M185.236 16.0709C185.236 15.7794 185.472 15.5431 185.763 15.5431H187.803C188.413 15.5431 188.907 16.0371 188.907 16.6465V30.2619C188.907 30.8713 188.413 31.3654 187.803 31.3654H185.737C185.46 31.3654 185.236 31.1409 185.236 30.8639C185.236 30.4252 184.702 30.1881 184.348 30.4474C183.099 31.3626 181.776 31.8202 180.378 31.8202C178.191 31.8202 176.382 31.0296 174.953 29.4485C173.534 27.8349 172.825 25.8205 172.825 23.4055C172.825 21.0338 173.534 19.0573 174.953 17.4762C176.371 15.8951 178.148 15.1045 180.281 15.1045C181.725 15.1045 183.053 15.5711 184.264 16.5045C184.641 16.7943 185.236 16.5458 185.236 16.0709ZM176.561 23.4055C176.561 24.9217 176.967 26.1562 177.779 27.1093C178.613 28.0731 179.664 28.555 180.931 28.555C182.284 28.555 183.378 28.0894 184.212 27.158C185.046 26.1941 185.463 24.9704 185.463 23.4867C185.463 22.003 185.046 20.7793 184.212 19.8154C183.378 18.8732 182.295 18.4021 180.963 18.4021C179.707 18.4021 178.657 18.8787 177.812 19.8317C176.978 20.7955 176.561 21.9868 176.561 23.4055Z" fill="#F8FAFC"/>
<path d="M160.429 15.5435C161.038 15.5435 161.532 16.0375 161.532 16.6469V24.6242C161.532 27.245 162.566 28.5554 164.635 28.5554C166.703 28.5554 167.737 27.245 167.737 24.6242V16.6469C167.737 16.0375 168.231 15.5435 168.841 15.5435H170.289C170.898 15.5435 171.392 16.0375 171.392 16.6469V24.7054C171.392 25.9725 171.235 27.0663 170.921 27.9868C170.618 28.8099 170.093 29.5517 169.346 30.2123C168.111 31.2845 166.541 31.8206 164.635 31.8206C162.74 31.8206 161.175 31.2845 159.94 30.2123C159.182 29.5517 158.646 28.8099 158.332 27.9868C158.029 27.2504 157.877 26.1566 157.877 24.7054V16.6469C157.877 16.0375 158.371 15.5435 158.98 15.5435H160.429Z" fill="#F8FAFC"/>
<path d="M153.292 39.975C152.683 39.975 152.188 39.481 152.188 38.8715V32.3009C152.188 31.3119 150.91 30.7604 150.019 31.189C149.143 31.6098 148.21 31.8202 147.218 31.8202C145.084 31.8202 143.313 31.035 141.906 29.4647C140.487 27.8836 139.778 25.9072 139.778 23.5354C139.778 21.1312 140.487 19.1223 141.906 17.5087C143.335 15.9059 145.127 15.1045 147.283 15.1045C148.735 15.1045 150.065 15.558 151.272 16.4651C151.631 16.7351 152.188 16.4968 152.188 16.0474C152.188 15.7689 152.414 15.5431 152.693 15.5431H154.756C155.366 15.5431 155.86 16.0371 155.86 16.6465V38.8715C155.86 39.481 155.366 39.975 154.756 39.975H153.292ZM143.514 23.373C143.514 24.9 143.925 26.14 144.748 27.093C145.572 28.0677 146.617 28.555 147.884 28.555C149.227 28.555 150.315 28.0894 151.149 27.158C151.994 26.2158 152.416 24.992 152.416 23.4867C152.416 22.003 151.999 20.7793 151.165 19.8154C150.331 18.8732 149.248 18.4021 147.916 18.4021C146.66 18.4021 145.609 18.8787 144.765 19.8317C143.931 20.7955 143.514 21.976 143.514 23.373Z" fill="#F8FAFC"/>
<path d="M136.946 9.05946C137.527 9.76885 137.247 10.8007 136.454 11.2618L136.246 11.3826C135.458 11.8408 134.484 11.5418 133.866 10.8711C133.633 10.6172 133.404 10.4262 133.18 10.2982C132.639 9.95813 131.94 9.78808 131.085 9.78808C130.034 9.78808 129.163 10.0804 128.469 10.6649C127.776 11.2388 127.43 11.9616 127.43 12.8331C127.43 14.0341 128.34 15.0012 130.159 15.7346L132.661 16.7389C134.697 17.5467 136.186 18.5351 137.128 19.7042C138.07 20.8627 138.541 22.2869 138.541 23.9768C138.541 26.2406 137.772 28.1112 136.234 29.5885C134.686 31.0764 132.763 31.8204 130.468 31.8204C128.291 31.8204 126.493 31.188 125.074 29.9233C124.002 28.9527 123.239 27.6785 122.786 26.1008C122.545 25.2612 123.124 24.4388 123.978 24.2542L124.516 24.1378C125.469 23.9317 126.359 24.6017 126.635 25.5372C126.79 26.0608 126.979 26.4653 127.202 26.7507C127.982 27.8136 129.119 28.345 130.614 28.345C131.794 28.345 132.774 27.9571 133.554 27.1812C134.334 26.4053 134.724 25.4222 134.724 24.2319C134.724 23.7536 134.653 23.3178 134.512 22.9246C134.383 22.5207 134.171 22.154 133.879 21.8246C133.597 21.4845 133.229 21.1709 132.774 20.884C132.319 20.5864 131.778 20.3047 131.15 20.039L128.729 19.0506C125.296 17.6264 123.58 15.5433 123.58 12.8012C123.58 10.9519 124.3 9.40546 125.74 8.16196C127.181 6.90783 128.973 6.28076 131.117 6.28076C133.485 6.28076 135.428 7.20699 136.946 9.05946Z" fill="#F8FAFC"/>
<g clip-path="url(#clip0_226_4051)">
<rect x="11.7241" y="2.44043" width="35.1187" height="35.1187" rx="17.5594" fill="#159C47"/>
<g opacity="0.18">
<path d="M14.0664 5.20957C15.4589 5.20957 16.5877 4.00568 16.5877 2.52071C16.5877 4.00578 17.7166 5.20957 19.109 5.20957C20.5015 5.20957 21.6303 4.00568 21.6303 2.52071C21.6303 4.00578 22.7591 5.20957 24.1515 5.20957C25.544 5.20957 26.6728 4.00568 26.6728 2.52071C26.6728 4.00578 27.8016 5.20957 29.194 5.20957C30.5865 5.20957 31.7153 4.00568 31.7153 2.52071C31.7153 4.00578 32.8442 5.20957 34.2366 5.20957C35.6291 5.20957 36.7578 4.00568 36.7578 2.52071C36.7578 4.00578 37.8866 5.20957 39.2791 5.20957C40.6716 5.20957 41.8004 4.00568 41.8004 2.52071C41.8004 4.00578 42.9292 5.20957 44.3216 5.20957C45.7141 5.20957 46.8428 4.00568 46.8428 2.52071L46.8047 2.44043H11.7262C11.7262 2.44043 11.5643 5.20957 14.0664 5.20957Z" fill="#272525"/>
</g>
<g opacity="0.18">
<path d="M14.0664 34.7899C15.4589 34.7899 16.5877 35.9938 16.5877 37.4788C16.5877 35.9937 17.7166 34.7899 19.109 34.7899C20.5015 34.7899 21.6303 35.9938 21.6303 37.4788C21.6303 35.9937 22.7591 34.7899 24.1515 34.7899C25.544 34.7899 26.6728 35.9938 26.6728 37.4788C26.6728 35.9937 27.8016 34.7899 29.194 34.7899C30.5865 34.7899 31.7153 35.9938 31.7153 37.4788C31.7153 35.9937 32.8442 34.7899 34.2366 34.7899C35.6291 34.7899 36.7578 35.9938 36.7578 37.4788C36.7578 35.9937 37.8866 34.7899 39.2791 34.7899C40.6716 34.7899 41.8004 35.9938 41.8004 37.4788C41.8004 35.9937 42.9292 34.7899 44.3216 34.7899C45.7141 34.7899 46.8428 35.9938 46.8428 37.4788L46.8047 37.5591H11.7262C11.7262 37.5591 11.5643 34.7899 14.0664 34.7899Z" fill="#272525"/>
</g>
<path d="M27.0183 16.8511L26.7318 15.8651C26.5834 15.3545 26.9665 14.8442 27.4982 14.8442H41.115C41.6467 14.8442 42.0297 15.3542 41.8816 15.8648L40.5102 20.5907C40.4112 20.9317 40.0988 21.1664 39.7436 21.1664H31.496C31.1552 21.1664 30.9095 21.4932 31.0042 21.8207C31.0676 22.0397 31.2681 22.1904 31.496 22.1904H38.9837C39.5156 22.1904 39.8987 22.7009 39.75 23.2116L39.489 24.1085C39.3898 24.4493 39.0775 24.6836 38.7226 24.6836H29.8919C29.537 24.6836 29.2247 24.4492 29.1256 24.1084L27.8153 19.6052C27.6668 19.0945 28.0498 18.5841 28.5817 18.5841H38.115C38.3717 18.5841 38.5977 18.415 38.6702 18.1688C38.7794 17.7981 38.5015 17.4265 38.115 17.4265H27.7847C27.4297 17.4265 27.1174 17.192 27.0183 16.8511Z" fill="white"/>
<path fill-rule="evenodd" clip-rule="evenodd" d="M22.8165 13.9061C22.7192 13.5626 22.4056 13.3255 22.0486 13.3255H17.7388C17.3833 13.3255 17.0707 13.0904 16.972 12.7489L16.7884 12.1134C16.641 11.603 17.024 11.0938 17.5552 11.0938H23.8672C24.2223 11.0938 24.5346 11.3283 24.6337 11.6692L27.7342 22.3426L28.1181 23.6627C28.2666 24.1734 27.8835 24.6838 27.3517 24.6838H21.2394C20.1686 24.6838 19.3507 24.4055 18.7858 23.849C18.2124 23.2925 17.9257 22.5083 17.9257 21.4965C17.9257 20.4847 18.2124 19.7005 18.7858 19.144C19.3507 18.5875 20.1686 18.3093 21.2394 18.3093H23.0081C23.5376 18.3093 23.9204 17.8031 23.776 17.2936L23.4906 16.2857L23.1644 15.1493C23.1641 15.1483 23.1649 15.1473 23.166 15.1473C23.167 15.1473 23.1678 15.1463 23.1675 15.1453L22.8165 13.9061ZM21.8845 20.3076H24.0975C24.453 20.3076 24.7656 20.5427 24.8643 20.8841L25.0902 21.6656C25.2377 22.176 24.8547 22.6854 24.3234 22.6854H21.8845C20.9738 22.6854 20.0118 22.6854 20.0118 21.4965C20.0118 20.2873 20.8238 20.2965 21.662 20.3059C21.7361 20.3068 21.8105 20.3076 21.8845 20.3076Z" fill="white"/>
<circle cx="27.38" cy="27.9496" r="1.93103" fill="white"/>
<circle cx="33.6617" cy="27.9496" r="1.93103" fill="white"/>
</g>
<defs>
<clipPath id="clip0_226_4051">
<rect x="11.7241" y="2.44043" width="35.1187" height="35.1187" rx="17.5594" fill="white"/>
</clipPath>
</defs>
</svg>
